<?xml version="1.0" encoding="UTF-8" standalone="no"?>
<!DOCTYPE svg PUBLIC "-//W3C//DTD SVG 1.1//EN" "http://www.w3.org/Graphics/SVG/1.1/DTD/svg11.dtd">
<svg width="100%" height="100%" viewBox="0 0 400 400" version="1.1" xmlns="http://www.w3.org/2000/svg" xmlns:xlink="http://www.w3.org/1999/xlink" xml:space="preserve" xmlns:serif="http://www.serif.com/" style="fill-rule:evenodd;clip-rule:evenodd;stroke-linejoin:round;stroke-miterlimit:2;">
    <g transform="matrix(1.04425,0,0,1.04425,-8.84956,-8.84956)">
        <path d="M391.525,104.237C391.525,51.384 348.616,8.475 295.763,8.475L104.237,8.475C51.384,8.475 8.475,51.384 8.475,104.237L8.475,295.763C8.475,348.616 51.384,391.525 104.237,391.525L295.763,391.525C348.616,391.525 391.525,348.616 391.525,295.763L391.525,104.237ZM325.703,241.992L316.959,329.256L74.297,329.256L74.297,318.262L241.417,87.323L184.734,87.323C173.19,87.323 164.867,87.658 159.764,88.327C154.661,88.997 149.862,90.367 145.366,92.438C140.142,94.387 134.371,99.533 128.052,107.877C121.734,116.222 113.289,130.138 102.717,149.628L87.96,149.628L95.976,70.744L320.784,70.744L320.784,81.738L153.661,312.677L218.725,312.677C239.138,312.677 253.02,311.856 260.371,310.212C267.722,308.569 273.098,305.616 276.501,301.354C283.425,292.951 289.834,283.727 295.728,273.681C301.621,263.636 307.058,253.073 312.04,241.992L325.703,241.992Z" style="fill:white;"/>
    </g>
</svg>
